<svg version="1.1" id="Capa_1" xmlns="http://www.w3.org/2000/svg" x="0" y="0" width="46.463" height="46.464" xml:space="preserve"><path d="M3.48 23.906l14.094 17.385c1.332 1.644 4.613 7.498 7.316 4.162 3.905-4.816 7.812-9.635 11.716-14.453 2.519-3.105 6.459-6.545 8.218-10.167 1.99-4.099-7.366-2.99-9.822-2.846-1.323-.853-.486-6.871-.486-8.142 0-2.087.801-6.003-.012-7.963C33.767.104 32.541.2 30.819.2H19.238c-1.688 0-4.309-.53-5.923.138-2.295.95-1.795 2.915-1.795 5.079v10.616c0 .618.316 1.97-.469 1.97H5.082c-5.247-.002-4.124 2.79-1.602 5.903zm33.747-.611c.467-1.232.959-2.455 1.46-3.67.033-.08.034-.151.044-.225h.772c-.049.063-.106.123-.142.19a226.196 226.196 0 01-2.003 3.767c-.263.483-.326.455-.131-.062zm4.329-3.708c.035-.066.038-.126.056-.188h.53c-.038.065-.077.125-.11.194-.936 1.852-1.848 3.716-2.764 5.578l-2.631 3.246a182.642 182.642 0 004.919-8.83zM12.904 32.5l-.048-.06c.021-.028.047-.043.066-.075a433.385 433.385 0 016.281-10.608c2.476-4.034 5.091-7.984 7.596-11.994.293-.468.295-.469.006.002-4.627 7.534-9.224 15.086-13.854 22.618-.022.035-.03.08-.047.117zm4.638 5.521c-.026.038-.038.085-.06.126l-.673-.831c.057-.104.112-.207.17-.309 4.075-6.161 8.126-12.338 12.21-18.493.307-.46.377-.423.152.081a72.314 72.314 0 01-1.483 3.119c-3.275 5.542-6.653 11.015-10.316 16.307zm15.321-8.542a567.411 567.411 0 01-1.097 3.092c-.186.52-.573 1.322-.869 1.788a122.649 122.649 0 01-3.515 5.255c-.319.45-.376.414-.121-.074a381.802 381.802 0 015.445-10.131c.267-.483.338-.452.157.07zm1.117-10.133a.888.888 0 00.443.049c.011 0 .017.004.028.004h1.682a917.467 917.467 0 00-14.012 24.322c-.018.031-.027.062-.044.096L18.6 39.528c4.29-5.84 8.393-11.824 11.615-18.25.79-1.339 1.572-2.683 2.354-4.026-.005.178-.008.333-.008.448 0 1.068.589 1.301 1.419 1.646zM32.793 8.039l.003.501c-.077.087-.155.173-.231.262-.221.261-.197.073.054-.419.057-.115.116-.229.174-.344zm-.179-3.777c-3.704 7.269-7.441 14.539-11.396 21.681a242.564 242.564 0 01-3.105 5.427 284.404 284.404 0 00-2.556 4.403l-1.485-1.832c.023-.03.053-.046.074-.081 6.157-10 12.241-20.046 18.417-30.033.018.138.034.285.051.435zm-1.125-2.481c.034-.065.038-.123.057-.184h.069c.072 0 .141.028.206.068l-.054.083c-1.006 1.618-2.014 3.234-3.015 4.854-.29.47-.292.468-.008-.006a124.91 124.91 0 002.745-4.815zm-2.613-.236l.662.014c-.062.073-.127.145-.17.224-4.292 8.083-9.678 15.591-14.367 23.448a523.9 523.9 0 00-3.301 5.626c-.019.033-.024.074-.041.109L10.228 29.2c.021-.029.048-.043.067-.076.92-1.596 1.84-3.19 2.756-4.787C17.945 16.547 23.218 8.996 28.8 1.69c.042-.05.051-.094.076-.145zm-3.668-.065l1.685.026c-.064.062-.139.12-.188.186a328.08 328.08 0 00-3.959 5.294c-.326.446-.384.411-.133-.081.861-1.691 1.7-3.393 2.516-5.105a.844.844 0 00.079-.32zm-8.338.064l.045-.002c-.11.16-.127.161-.045.002zm-3.394.601c0-.184.449-.32 1.197-.422-.011.018-.031.034-.041.052-.384.692-.77 1.383-1.156 2.074V2.145zM5.968 23.789c.8-1.404 1.596-2.811 2.389-4.218.006-.01.004-.019.009-.028 2.14.17 4.256.191 4.761-1.029.828-1.999.349-4.622.349-6.742v-1.18c1.747-2.997 3.539-5.96 5.426-8.857a.82.82 0 00.106-.256c1.331-.025 2.78-.028 4.215-.018a1.378 1.378 0 00-.238.342c-3.653 7.707-7.806 15.176-12.062 22.594a233.066 233.066 0 00-1.917 3.122c-.021.035-.027.079-.045.116l-3.057-3.771c.019-.028.046-.042.064-.075zm-1.209-4.476c-.076.082-.153.165-.205.255l-.829 1.452c-.01.018-.012.042-.022.061-.851-1.324-.218-1.72 1.056-1.768z"/></svg>