<svg version="1.1" id="Layer_1" xmlns="http://www.w3.org/2000/svg" x="0" y="0" viewBox="0 0 512.001 512.001" xml:space="preserve"><path d="M497.805 456.819h-383.99c-20.591 0-37.342-16.753-37.342-37.343V167.498c0-20.591 16.751-37.342 37.342-37.342h360.842c20.591 0 37.343 16.751 37.343 37.342v180.911c0 7.84-6.356 14.195-14.195 14.195-7.838 0-14.195-6.355-14.195-14.195V167.498c0-4.937-4.016-8.953-8.954-8.953h-360.84c-4.937 0-8.953 4.017-8.953 8.953v251.979c0 4.937 4.016 8.954 8.953 8.954h383.991c7.838 0 14.195 6.355 14.195 14.195s-6.357 14.193-14.197 14.193z" fill="#507c5c"/><path d="M497.805 167.498c0 7.39-3.527 14.335-9.495 18.693L294.237 327.936 100.163 186.191a23.147 23.147 0 01-9.495-18.693c0-12.784 10.364-23.147 23.147-23.147h360.842c12.785-.002 23.148 10.362 23.148 23.147z" fill="#cff09e"/><path d="M294.237 342.13c-2.938 0-5.879-.911-8.372-2.731L91.79 197.654c-9.591-7.008-15.316-18.281-15.316-30.157 0-20.591 16.751-37.342 37.342-37.342h360.842c20.591 0 37.343 16.751 37.343 37.342 0 11.877-5.726 23.15-15.317 30.157L302.61 339.399a14.19 14.19 0 01-8.373 2.731zM113.816 158.544c-4.937 0-8.953 4.016-8.953 8.953a8.988 8.988 0 003.674 7.232l185.7 135.629 185.7-135.63a8.982 8.982 0 003.674-7.231c0-4.937-4.016-8.953-8.954-8.953H113.816z" fill="#507c5c"/><path d="M90.668 167.498c0-12.784 10.364-23.147 23.147-23.147h307.517V92.526c0-12.784-10.363-23.149-23.147-23.149H37.343c-12.785 0-23.149 10.364-23.149 23.149v251.979c0 12.784 10.364 23.147 23.147 23.147h53.325V167.498h.002z" fill="#cff09e"/><path d="M90.668 381.847H37.343C16.753 381.847 0 365.096 0 344.505V92.526c0-20.591 16.753-37.343 37.343-37.343h360.842c20.591 0 37.342 16.753 37.342 37.343v51.825c0 7.84-6.356 14.195-14.195 14.195H113.816c-4.937 0-8.953 4.017-8.953 8.953v200.156c0 7.837-6.356 14.192-14.195 14.192zM37.343 83.572c-4.938 0-8.954 4.017-8.954 8.954v251.979c0 4.937 4.016 8.954 8.954 8.954h39.13V167.498c0-20.591 16.751-37.342 37.342-37.342h293.323v-37.63c0-4.937-4.016-8.954-8.953-8.954H37.343z" fill="#507c5c"/></svg>