<svg version="1.1" id="Layer_1" xmlns="http://www.w3.org/2000/svg" x="0" y="0" viewBox="0 0 512 512" xml:space="preserve"><path d="M173.29 188.932l-25.576 25.58c1.193 2.188 2.378 4.554 3.719 6.939 12.176 21.957 28.766 52.003 60.386 83.623 31.699 31.688 61.757 48.392 83.716 60.56 2.307 1.311 3.818 1.848 5.976 3.04l22.55-23.994 2.486-2.486c19.01-19.01 49.831-19.01 68.843 0l50.794 50.794c19.117 19.117 18.995 50.149-.273 69.113l-10.151 9.991c-8.322 6.507-18.001 12.027-28.325 16.069-9.86 3.737-19.3 6.127-28.696 7.162-75.484 9.129-144.483-25.357-238.109-118.943C11.263 246.974 20.993 142.69 21.497 138.185c1.154-9.78 3.495-19.172 7.192-28.726 4.003-10.244 9.606-20.008 16.114-28.29l9.985-10.154c18.961-19.285 50.008-19.416 69.131-.291l49.369 49.369c19.01 19.009 19.01 49.829.002 68.839z" fill="#6ab797"/><g fill="#11544f"><path d="M355.623 512c-70.726 0-138.249-37.332-225.78-124.827-55.63-55.646-93.316-113.542-112.018-172.084C3.232 169.402 5.968 139.728 6.33 136.494c1.32-11.203 3.975-21.816 8.126-32.543 4.513-11.546 10.85-22.668 18.346-32.21.349-.444.723-.867 1.117-1.27l9.985-10.154c12.117-12.324 28.31-19.111 45.594-19.111 17.078 0 33.135 6.651 45.211 18.726l49.371 49.371c24.928 24.931 24.928 65.493.002 90.423l-17.527 17.527c11.555 20.792 27.447 48.424 56.055 77.032 28.156 28.149 55.128 43.978 75.747 55.466l14.584-15.52c.108-.114.218-.227.33-.34l2.486-2.486c12.077-12.076 28.136-18.726 45.214-18.726s33.135 6.65 45.212 18.726l50.793 50.794c12.144 12.143 18.795 28.29 18.726 45.464-.067 17.174-6.844 33.268-19.086 45.316l-10.15 9.991c-.414.406-.848.789-1.303 1.145-9.494 7.424-20.614 13.739-32.161 18.259l-.157.061c-11.207 4.245-21.792 6.881-32.355 8.051-8.341 1.004-16.699 1.515-24.849 1.515l-.018-.001zM56.303 91.239c-5.457 7.078-10.081 15.28-13.4 23.774-3.196 8.256-5.247 16.435-6.251 24.957-.018.156-2.639 25.49 10.247 65.83 11.83 37.031 39.566 94.812 104.523 159.789 81.257 81.225 142.336 115.883 204.2 115.888h.012a177.835 177.835 0 0021.432-1.323c7.977-.879 16.117-2.919 24.884-6.235 8.531-3.348 16.722-7.951 23.748-13.338l9.506-9.358c6.397-6.296 9.941-14.708 9.974-23.686.035-8.976-3.44-17.414-9.788-23.761l-50.793-50.794c-6.312-6.313-14.703-9.788-23.629-9.788s-17.321 3.476-23.632 9.788l-2.317 2.317-22.389 23.825a15.26 15.26 0 01-18.503 2.904c-.711-.394-1.326-.679-1.943-.974-1.091-.522-2.448-1.167-4.113-2.112-22.692-12.572-53.75-29.794-87.042-63.079-32.975-32.975-50.189-64.014-62.756-86.679l-.186-.336a176.21 176.21 0 01-2.4-4.458c-.464-.879-.917-1.743-1.37-2.576a15.258 15.258 0 012.606-18.096l25.578-25.58c13.028-13.028 13.028-34.229-.002-47.26l-49.374-49.366c-6.312-6.312-14.703-9.788-23.628-9.788-9.034 0-17.498 3.547-23.829 9.988l-9.365 9.527zm431.652 153.385c-.902 0-1.814-.081-2.733-.246-8.294-1.5-13.802-9.44-12.303-17.733 9.719-53.75-7.496-108.856-46.05-147.41s-93.659-55.777-147.41-46.05c-8.288 1.497-16.233-4.007-17.733-12.303-1.499-8.294 4.009-16.233 12.303-17.733 63.595-11.496 128.797 8.877 174.422 54.503 45.624 45.626 66 110.83 54.503 174.422-1.331 7.376-7.759 12.55-14.999 12.55z"/><path d="M394.873 244.625c-1.796 0-3.62-.319-5.399-.992-7.882-2.983-11.854-11.793-8.871-19.675 10.62-28.058 3.792-59.876-17.392-81.062s-53.003-28.011-81.062-17.392c-7.882 2.99-16.692-.987-19.675-8.871-2.983-7.882.987-16.692 8.871-19.675 39.262-14.862 83.792-5.3 113.449 24.356 29.656 29.659 39.215 74.189 24.356 113.449-2.312 6.104-8.115 9.862-14.277 9.862z"/></g></svg>